<svg xmlns="http://www.w3.org/2000/svg" xmlns:xlink="http://www.w3.org/1999/xlink" version="1.1" width="1000"
  height="1000" viewBox="0 0 1000 1000" xml:space="preserve">
  <desc>Created with Fabric.js 3.5.0</desc>
  <defs>
  </defs>
  <rect x="0" y="0" width="100%" height="100%" fill="#ffffff" />
  <g transform="matrix(11.9265 0 0 11.9265 500.0007 500.0009)" id="SvgjsG1183">
    <path
      style="stroke: none; stroke-width: 1; stroke-dasharray: none; stroke-linecap: butt; stroke-dashoffset: 0; stroke-linejoin: miter; stroke-miterlimit: 4; is-custom-font: none; font-file-url: none; fill: rgb(100,110,203); fill-rule: nonzero; opacity: 1;"
      transform=" translate(-49.9022, -50.1286)"
      d="M 41.165 11.212 C 27.221 14.36 27.013 29.283 27.013 32.62 c 0 8.664 -3.628 13.863 -5.144 15.812 c -1.63 2.096 -2.058 3.032 -1.739 4.153 c 0.331 1.162 3.905 0.937 4.067 1.912 c 0.125 0.749 -0.655 1.567 -0.361 2.636 c 0.199 0.722 1.45 1.363 1.335 1.858 c -0.108 0.471 -1.028 1.949 -0.379 2.707 c 2.644 3.084 1.68 3.292 1.209 6.265 c -1.119 7.075 9.675 4.62 9.675 4.62 c 12.708 -2.888 13.719 17.474 13.719 17.474 h 1.901 c 0 0 -1.14 -11.66 -5.577 -16.272 c -4.062 -4.225 -9.21 -3.146 -10.731 -2.896 c -9.206 1.518 -7.183 -2.719 -7.031 -3.857 c 0.343 -2.563 0.462 -3.761 -1.379 -6.035 c -0.512 -0.631 0.535 -1.842 0.228 -2.654 c -0.307 -0.812 -1.473 -1.003 -1.473 -1.84 c 0 -1.139 0.85 -2.346 0.36 -3.122 c -0.65 -1.028 -3.188 -0.981 -3.375 -2.131 c -0.243 -1.496 6.385 -6.581 6.668 -18.711 c 0.217 -9.314 3.224 -16.85 12.466 -19.449 c 8.106 -2.278 19.951 -0.73 24.692 1.878 c 6.742 3.706 10.371 8.46 11.408 13.646 c 1.976 9.868 -3.021 19.952 -3.826 21.372 c -1.227 2.166 -3.307 5.891 -4.26 9.097 c -2.274 7.653 -4.253 8.044 -7.419 8.416 c -5.96 0.699 -6.587 -6.285 -6.646 -7.405 h 1.112 c 0.598 0 1.083 -0.485 1.083 -1.083 v -0.144 c 0 -0.6 -0.485 -1.084 -1.083 -1.084 h -3.934 c -0.599 0 -1.084 0.484 -1.084 1.084 v 0.144 c 0 0.598 0.485 1.083 1.084 1.083 h 1.01 c 1.064 9.672 6.028 9.739 9.233 9.307 c 3.214 -0.433 6.229 -3.618 7.132 -6.795 c 0.506 -1.779 2.065 -6.926 4.688 -10.922 c 1.517 -2.312 4.353 -8.412 4.931 -14.188 C 82.61 7.162 50.118 9.19 41.165 11.212 z"
      stroke-linecap="round" />
  </g>
  <g transform="matrix(6.087 0 0 6.087 552.5333 581.1687)" id="SvgjsG1183">
    <path
      style="stroke: none; stroke-width: 1; stroke-dasharray: none; stroke-linecap: butt; stroke-dashoffset: 0; stroke-linejoin: miter; stroke-miterlimit: 4; is-custom-font: none; font-file-url: none; fill: rgb(100,110,203); fill-rule: nonzero; opacity: 1;"
      transform=" translate(-54.549, -56.3275)"
      d="M 50.181 57.483 h 8.737 c 0.597 0 1.082 -0.485 1.082 -1.083 v -0.146 c 0 -0.598 -0.485 -1.082 -1.082 -1.082 h -8.737 c -0.598 0 -1.083 0.484 -1.083 1.082 V 56.4 C 49.098 56.998 49.583 57.483 50.181 57.483 z"
      stroke-linecap="round" />
  </g>
  <g transform="matrix(6.087 0 0 6.087 552.2234 563.8249)" id="SvgjsG1183">
    <path
      style="stroke: none; stroke-width: 1; stroke-dasharray: none; stroke-linecap: butt; stroke-dashoffset: 0; stroke-linejoin: miter; stroke-miterlimit: 4; is-custom-font: none; font-file-url: none; fill: rgb(100,110,203); fill-rule: nonzero; opacity: 1;"
      transform=" translate(-54.5495, -53.6835)"
      d="M 49.802 54.838 h 9.495 c 0.599 0 1.083 -0.484 1.083 -1.081 v -0.146 c 0 -0.599 -0.484 -1.082 -1.083 -1.082 h -9.495 c -0.599 0 -1.083 0.483 -1.083 1.082 v 0.146 C 48.719 54.354 49.203 54.838 49.802 54.838 z"
      stroke-linecap="round" />
  </g>
  <g transform="matrix(6.087 0 0 6.087 552.2237 453.3068)" id="SvgjsG1183">
    <path
      style="stroke: none; stroke-width: 1; stroke-dasharray: none; stroke-linecap: butt; stroke-dashoffset: 0; stroke-linejoin: miter; stroke-miterlimit: 4; is-custom-font: none; font-file-url: none; fill: rgb(100,110,203); fill-rule: nonzero; opacity: 1;"
      transform=" translate(-54.7225, -35.5265)"
      d="M 50.079 49.875 h -0.331 c -0.599 0 -1.083 0.486 -1.083 1.083 v 0.146 c 0 0.599 0.484 1.083 1.083 1.083 h 9.604 c 0.598 0 1.083 -0.484 1.083 -1.083 v -0.146 c 0 -0.593 -0.479 -1.072 -1.07 -1.08 c -0.174 -0.906 -0.477 -2.653 -0.526 -4.08 c -0.042 -1.174 0.124 -1.729 0.884 -2.6 c 1.733 -1.986 6.823 -6.065 6.787 -12.095 c -0.039 -6.454 -5.002 -11.737 -11.336 -12.199 V 18.87 c 0 0 -0.223 -0.004 -0.433 -0.004 c -0.224 0 -0.451 0 -0.471 0 v 0.004 v 0.033 c -6.333 0.462 -11.297 5.745 -11.335 12.199 c -0.036 6.029 5.054 10.109 6.788 12.095 c 0.76 0.871 0.927 1.426 0.884 2.6 C 50.554 47.223 50.253 48.967 50.079 49.875 z"
      stroke-linecap="round" />
  </g>
</svg>